<svg version="1.1" id="Layer_1" xmlns="http://www.w3.org/2000/svg" xmlns:xlink="http://www.w3.org/1999/xlink" x="0px" y="0px"
	 viewBox="0 0 20 20" style="enable-background:new 0 0 20 20;" xml:space="preserve">
<g>
	<g>
		<path d="M5.1,16.8C5,16.8,5,16.8,5.1,16.8c-0.7,0-1.2-0.3-1.6-0.7c-0.4-0.4-0.7-1-0.7-1.5c0-0.6,0.2-1.1,0.6-1.5l9.1-9.1
			c0.5-0.5,1.2-0.8,1.9-0.7c0.7,0,1.4,0.3,2,0.9c0.5,0.5,0.8,1.2,0.9,2c0,0.7-0.2,1.4-0.7,1.9l-6.9,6.9c-0.1,0.1-0.3,0.1-0.5,0
			c-0.1-0.1-0.1-0.3,0-0.5L16,7.5c0.4-0.4,0.6-0.9,0.5-1.4c0-0.6-0.3-1.1-0.7-1.5c-0.4-0.4-1-0.7-1.5-0.7c-0.6,0-1.1,0.2-1.4,0.5
			l-9.1,9.1c-0.6,0.6-0.5,1.5,0.1,2.1c0.3,0.3,0.7,0.5,1.1,0.5c0.4,0,0.8-0.1,1-0.4l7.4-7.4c0.3-0.3,0.3-0.9-0.1-1.2
			c-0.2-0.2-0.4-0.3-0.7-0.3c-0.2,0-0.4,0.1-0.6,0.2l-5.2,5.2c-0.1,0.1-0.3,0.1-0.5,0c-0.1-0.1-0.1-0.3,0-0.5l5.2-5.2
			c0.3-0.3,0.7-0.4,1.1-0.4c0.4,0,0.8,0.2,1.1,0.5c0.6,0.6,0.7,1.6,0.1,2.2l-7.4,7.4C6.1,16.6,5.6,16.8,5.1,16.8z"/>
	</g>
</g>
</svg>
